<?xml version="1.0" encoding="UTF-8"?>
<svg width="176px" height="50px" viewBox="0 0 176 50" version="1.1" xmlns="http://www.w3.org/2000/svg" xmlns:xlink="http://www.w3.org/1999/xlink">
    <title>云智慧logo-彩色-176x50</title>
    <g id="云智慧logo-彩色-176x50" stroke="none" stroke-width="1" fill="none" fill-rule="evenodd">
        <g id="云智慧中英文横版组合小写英文" fill-rule="nonzero">
            <path d="M53.6333273,49.4464286 C51.6445207,49.4464286 49.7477884,49 47.8142264,48.0803571 C46.3042065,47.3571429 44.8033941,46.375 42.9619065,44.8839286 L42.8974544,44.8392857 C42.7225131,44.7321429 42.5659866,44.5982143 42.4186676,44.4464286 L42.363423,44.3928571 C42.3542156,44.375 42.3358007,44.3660714 42.3173858,44.3571429 C42.2805561,44.2946429 42.2437263,44.25 42.2068966,44.1964286 L42.2068966,44.1964286 C41.8846362,43.7589286 41.7096949,43.25 41.7096949,42.7142857 C41.7096949,41.3125 42.888247,40.1607143 44.3430222,40.1607143 C44.9046759,40.1607143 45.4479148,40.3303571 45.8990793,40.6607143 L45.935909,40.6696429 C48.1088644,42.5178571 50.5027983,44.3035714 53.6333273,44.3035714 C60.3639646,44.3035714 63.9916953,39.3571429 63.9916953,34.6964286 C63.9916953,30.0714286 60.1982307,25.0714286 54.0752843,25.0714286 C50.1529157,25.0714286 47.5195884,27.3125 44.969128,29.4821429 L44.821809,29.6071429 C44.4074743,29.9553571 43.9839321,30.3125 43.5695974,30.6785714 C42.1148222,31.9196429 40.7429139,33.0892857 39.7393031,33.8839286 C37.9162304,35.3303571 31.6551724,40.5892857 28.9758079,42.8392857 C28.5983029,43.1517857 28.2300054,43.4732143 27.8617079,43.7857143 C24.4641632,46.6964286 21.2507673,49.4464286 15.4592887,49.4464286 C11.6474093,49.4464286 7.82632244,47.9464286 4.98122405,45.3482143 C1.97959921,42.5892857 0.322260336,38.8392857 0.322260336,34.7946429 C0.322260336,29.2410714 3.01083228,25.7589286 5.25744719,23.8125 C8.08413071,21.375 11.7947283,19.9821429 15.4500812,19.9821429 C20.0077631,19.9821429 22.7699946,21.4910714 26.0110128,24.0892857 L26.05705,24.125 C26.1951616,24.2142857 26.3148583,24.3125 26.4253475,24.4196429 L26.4529699,24.4375 L26.4529699,24.4464286 C26.9133418,24.9107143 27.17115,25.5267857 27.17115,26.1696429 C27.17115,27.5446429 26.0202203,28.6607143 24.6022748,28.6607143 C24.0406211,28.6607143 23.4973822,28.4821429 23.0462177,28.1517857 L23.0370103,28.1517857 C20.6062466,26.2053571 18.5898177,25.0803571 15.4777036,25.0803571 C10.717458,25.0803571 5.58891497,28.7589286 5.58891497,34.6875 C5.58891497,39.9910714 10.0269002,44.3125 15.4777036,44.3125 C20.0722152,44.3125 22.2912078,41.9017857 25.6519227,38.25 C26.2780285,37.5714286 26.9225492,36.8660714 27.6407294,36.1160714 C28.6535476,35.0535714 31.645965,32.0446429 33.432208,30.25 C33.874165,29.8035714 34.25167,29.4196429 34.5094782,29.1607143 C40.2365048,23.3928571 42.0135404,21.5714286 42.0319552,21.5535714 L42.0503701,21.5357143 C44.8586387,18.4285714 45.558404,14.4642857 43.9102726,10.9375 C42.2897635,7.47321429 38.70807,5.23214286 34.776494,5.23214286 C29.1967864,5.23214286 25.8821087,9.33035714 25.1455136,13.1607143 L25.1178913,13.1785714 C24.7864235,14.25 23.7551905,15.0089286 22.5950533,15.0089286 C21.140278,15.0089286 19.9617259,13.8660714 19.9617259,12.4553571 C19.9617259,12.2053571 19.9985557,11.9642857 20.0722152,11.7232143 L20.0906301,11.6696429 C20.7627731,8.55357143 22.4201119,5.86607143 25.0166095,3.67857143 C27.8156707,1.3125 31.1027261,0.116071429 34.7857014,0.116071429 C39.0027081,0.116071429 42.80538,1.64285714 45.7793826,4.51785714 C47.3354396,6.02678571 48.4771619,7.75 49.1861347,9.65178571 C49.7569958,11.1785714 50.0516339,12.8214286 50.0700487,14.5357143 C50.0884636,17.4821429 49.2597942,19.6607143 49.2505867,19.6785714 L48.9559487,20.6696429 L50.0424264,20.5357143 C51.3406752,20.1785714 52.6941686,19.9910714 54.0660769,19.9910714 C57.9147861,19.9910714 61.7358729,21.4464286 64.5441415,23.9732143 C66.0081242,25.2946429 67.1498465,26.8482143 67.9508937,28.6071429 C68.8071854,30.4821429 69.239935,32.5267857 69.239935,34.7053571 C69.239935,38.6964286 67.6930854,42.3928571 64.8940242,45.1071429 C62.0213035,47.9017857 58.0160679,49.4464286 53.6333273,49.4464286 Z" id="路径" fill="#00C9C3"></path>
            <g id="编组" transform="translate(76.421737, 0.892857)" fill="#A7A9AC">
                <g>
                    <path d="M3.26864055,4.24107143 L28.2576277,4.24107143 C28.9021484,4.24107143 29.3809352,3.77678571 29.3809352,3.15178571 L29.3809352,3.08035714 C29.3809352,2.49107143 28.9021484,1.99107143 28.2576277,1.99107143 L3.26864055,1.99107143 C2.62411988,1.99107143 2.15454053,2.49107143 2.15454053,3.08035714 L2.15454053,3.15178571 C2.15454053,3.77678571 2.62411988,4.24107143 3.26864055,4.24107143 Z" id="路径"></path>
                    <path d="M24.4365409,18.4642857 L26.2596136,25.4732143 C26.2596136,26 26.5174219,26.4642857 26.1491244,26.8214286 C25.7716194,27.1875 25.3020401,27.4107143 24.7864235,27.4107143 L9.10615635,27.4107143 C9.10615635,27.4107143 7.1173497,27.4107143 6.14136126,27.4107143 C5.22982488,27.4107143 6.4175844,24.9375 6.4175844,24.9375 L9.65860264,16.7321429 C9.23506048,16.5714286 8.88517783,16.2321429 8.42480592,16.1428571 C8.18541253,16.0892857 7.92760426,16.0535714 7.71583318,15.9553571 L3.06607691,28.2678571 C2.96479509,28.5982143 3.06607691,28.9285714 3.3054703,29.2321429 C3.50803394,29.4910714 3.78425709,29.625 4.16176205,29.625 L24.795631,29.625 C25.3388698,29.625 25.9189384,29.5267857 26.4253475,29.2946429 C27.4473732,28.8660714 27.990612,28.5625 28.4233616,27.5714286 C28.6903773,27.0446429 28.7179996,26.2053571 28.5338509,25.4642857 L27.254017,20.5267857 C26.5910814,18.5178571 24.4365409,18.4642857 24.4365409,18.4642857 Z" id="路径"></path>
                    <path d="M29.5190468,11.0982143 L2.00722152,11.0982143 C1.3995306,11.0982143 0.883914064,11.5892857 0.883914064,12.1875 L0.883914064,12.25 C0.883914064,12.8392857 1.39032316,13.3392857 2.00722152,13.3392857 L29.5098393,13.3392857 C30.1175302,13.3392857 30.6240629,12.8392857 30.6240629,12.25 L30.6240629,12.1875 C30.6331468,11.5892857 30.1267377,11.0982143 29.5190468,11.0982143 Z" id="路径"></path>
                    <path d="M41.8293916,12.4464286 C42.2713486,11.9553571 42.6396461,11.4285714 42.952699,10.8660714 L48.5876512,15.4107143 C49.066438,15.8125 49.7477884,15.7410714 50.1529157,15.3214286 C50.3554793,15.0535714 50.4935909,14.8214286 50.4659686,14.4910714 C50.4291388,14.1875 50.327857,13.9732143 50.0516339,13.7321429 L45.6688933,10.1428571 L49.6096768,10.1428571 C50.2541975,10.1428571 50.7329843,9.64285714 50.7329843,9.05357143 L50.7329843,8.99107143 C50.7329843,8.40178571 50.2541975,7.90178571 49.6096768,7.90178571 L43.9655172,7.90178571 C44.0667991,7.375 44.1036288,6.84821429 44.1036288,6.28571429 L44.1404586,4.875 L49.2045496,4.875 C49.8122405,4.875 50.327857,4.38392857 50.327857,3.78571429 L50.327857,3.74107143 C50.327857,3.15178571 49.8214479,2.65178571 49.2045496,2.65178571 L38.496299,2.65178571 L38.560751,2.41964286 C38.6988626,2.11607143 38.6988626,1.83035714 38.560751,1.5625 C38.4594692,1.29464286 38.2200758,1.07142857 37.9530601,0.973214286 L37.8886081,0.973214286 C37.3453692,0.741071429 36.6640188,1.00892857 36.4614551,1.5625 L35.7064452,3.375 C35.4302221,4.09821429 35.9458386,4.85714286 36.7560932,4.85714286 L41.8201841,4.85714286 L41.8201841,6.26785714 C41.8201841,6.83035714 41.7465246,7.39285714 41.6452428,7.88392857 L35.9734609,7.88392857 C35.3565626,7.88392857 34.8501535,8.375 34.8501535,8.97321429 L34.8501535,9.03571429 C34.8501535,9.625 35.36577,10.125 35.9734609,10.125 L40.6968767,10.125 C40.4851056,10.4553571 40.2549197,10.7857143 39.9786965,11.0803571 C38.8922188,12.2321429 37.3637841,13.2142857 35.4578444,13.9464286 C34.8777758,14.2053571 34.6107601,14.7678571 34.776494,15.3214286 L34.8133237,15.3839286 C34.9146055,15.6875 35.1539989,15.8839286 35.4210146,16.0089286 C35.6972378,16.1071429 36.0010832,16.1071429 36.2680989,16.0446429 C38.6988626,15.1160714 40.5311428,13.9285714 41.8293916,12.4464286 Z" id="路径"></path>
                    <path d="M63.9272432,2.58928571 C63.2458928,1.92857143 62.3343564,1.53571429 61.3399531,1.53571429 L55.7970753,1.53571429 C54.3054703,1.53571429 53.0440513,2.42857143 52.4639827,3.71428571 C52.261419,4.14285714 52.1877595,4.60714286 52.1877595,5.0625 L52.1877595,12.2232143 C52.1877595,14.1696429 53.7806463,15.7410714 55.7878678,15.7410714 L61.3307456,15.7410714 C61.8463622,15.7410714 62.2791118,15.6517857 62.7210688,15.4464286 C64.0837696,14.8928571 64.9676837,13.6696429 64.9676837,12.2232143 L64.9676837,5.0625 C64.9768911,4.09821429 64.6085936,3.24107143 63.9272432,2.58928571 Z M62.7026539,12.2142857 L62.6934465,14.6339286 C62.6934465,14.6339286 61.5885539,13.5 60.6401878,13.5 L55.7970753,13.5 C55.014443,13.5 54.4343744,12.9732143 54.4343744,12.2142857 L54.4343744,5.0625 C54.4343744,4.70535714 54.572486,4.375 54.802672,4.14285714 C55.0788951,3.91071429 55.3827406,3.77678571 55.7970753,3.77678571 L61.3399531,3.77678571 C61.7450803,3.77678571 62.0489258,3.91071429 62.2883192,4.14285714 C62.5921647,4.375 62.6934465,4.70535714 62.6934465,5.0625 L62.6934465,12.2142857 L62.7026539,12.2142857 Z" id="形状"></path>
                    <path d="M40.6232172,22.6696429 C40.6232172,22.6785714 40.6508395,24.875 40.6508395,24.875 L58.9091894,24.875 L58.9183968,22.6696429 L40.6232172,22.6696429 Z" id="路径"></path>
                    <path d="M60.7967142,17.4910714 C60.3547572,17.2946429 59.9496299,17.1964286 59.4340134,17.1964286 L40.1628453,17.1964286 C39.6564362,17.1964286 39.2421015,17.2946429 38.8001444,17.4910714 C37.4742733,18.0535714 36.5903593,19.3035714 36.5903593,20.7232143 L36.5903593,26.8839286 C36.5903593,28.3392857 37.4742733,29.5535714 38.8001444,30.1517857 C39.2421015,30.3125 39.6472287,30.4196429 40.1628453,30.4196429 L54.6369381,30.4196429 C57.7950894,30.4196429 58.7434555,28.2142857 58.7434555,28.2142857 L40.1628453,28.2142857 C39.8221701,28.2142857 39.5183246,28.0803571 39.2421015,27.8482143 C39.0027081,27.6160714 38.8645965,27.2857143 38.8645965,26.8839286 L38.8645965,20.7232143 C38.8645965,20.3303571 39.0027081,20.0267857 39.2421015,19.7678571 C39.5091172,19.5357143 39.8221701,19.4017857 40.1628453,19.4017857 L59.4340134,19.4017857 C59.7746886,19.4017857 60.078534,19.5357143 60.3455497,19.7678571 C60.5849431,20.0357143 60.7230547,20.3303571 60.7230547,20.7232143 L60.7230547,26.8839286 C60.7230547,27.0357143 60.9164109,29.2410714 58.6974183,30.4196429 C59.1301679,30.4017857 62.7118613,30.1785714 62.9605365,26.8839286 L62.9605365,20.7232143 C62.9696696,19.3035714 62.1225853,18.0535714 60.7967142,17.4910714 Z" id="路径"></path>
                    <path d="M73.5582235,23.9375 C73.0886442,25.8482143 72.2691822,27.5625 71.2103268,29.25 C71.0445929,29.4732143 70.8051995,29.6696429 70.4645243,29.7053571 C70.1606788,29.7678571 69.8476259,29.6696429 69.5806102,29.5089286 L69.5069507,29.4732143 C69.0649937,29.1517857 68.9360895,28.5178571 69.2307276,28.0267857 C69.7095144,27.3303571 70.1146416,26.5714286 70.4553168,25.8125 C70.8328218,25.0535714 71.0998375,24.2589286 71.3392309,23.375 C71.468135,22.8482143 72.0482036,22.4910714 72.6282723,22.5892857 L72.7019318,22.5892857 C73.0057772,22.6517857 73.2451706,22.8482143 73.4477342,23.0803571 C73.5950533,23.3482143 73.6595053,23.6339286 73.5582235,23.9375 Z" id="路径"></path>
                    <path d="M81.8172955,1.14285714 C82.4249865,1.14285714 82.940603,1.66964286 82.940603,2.23214286 L82.940603,2.30357143 C82.940603,2.89285714 82.4249865,3.39285714 81.8172955,3.39285714 L77.2319913,3.39285714 L77.2319913,5.00892857 L81.5502798,5.00892857 C82.1671782,5.00892857 82.6735873,5.47321429 82.6735873,6.09821429 L82.6735873,6.13392857 C82.6735873,6.72321429 82.1579708,7.22321429 81.5502798,7.22321429 L77.2319913,7.22321429 L77.2319913,8.875 L81.8172955,8.875 C82.4249865,8.875 82.940603,9.36607143 82.940603,9.96428571 L82.940603,9.99107143 C82.940603,10.5892857 82.4249865,11.0803571 81.8172955,11.0803571 L77.2319913,11.0803571 C77.2319913,11.0803571 76.3756996,12.625 74.598664,12.625 C74.1382921,12.625 75.1695252,11.7946429 74.9577541,11.0803571 L70.3356201,11.0803571 C69.7187218,11.0803571 69.2123127,10.5892857 69.2123127,9.99107143 L69.2123127,9.96428571 C69.2123127,9.375 69.7187218,8.875 70.3356201,8.875 L74.9577541,8.875 L74.9577541,7.22321429 L70.648673,7.22321429 C70.0317747,7.22321429 69.5161582,6.73214286 69.5161582,6.13392857 L69.5161582,6.08035714 C69.5161582,5.45535714 70.0317747,4.99107143 70.648673,4.99107143 L74.9577541,4.99107143 L74.9577541,3.38392857 L70.3356201,3.38392857 C69.7187218,3.38392857 69.2123127,2.89285714 69.2123127,2.29464286 L69.2123127,2.22321429 C69.2123127,1.66964286 69.7187218,1.13392857 70.3356201,1.13392857 L74.9945839,1.13392857 C75.1326954,0.705357143 75.5378227,0.339285714 76.0810616,0.339285714 L76.1178913,0.339285714 C76.6243004,0.339285714 77.0662574,0.705357143 77.204369,1.13392857 L81.8172955,1.13392857 L81.8172955,1.14285714 Z" id="路径"></path>
                    <path d="M97.3686586,1.14285714 C97.9763495,1.14285714 98.4919661,1.66964286 98.4919661,2.23214286 L98.4919661,2.30357143 C98.4919661,2.89285714 97.985557,3.39285714 97.3686586,3.39285714 L92.774147,3.39285714 L92.774147,5.00892857 L97.0924355,5.00892857 C97.7093338,5.00892857 98.2157429,5.47321429 98.2157429,6.09821429 L98.2157429,6.13392857 C98.2157429,6.72321429 97.7093338,7.22321429 97.0924355,7.22321429 L92.774147,7.22321429 L92.774147,8.875 L97.3686586,8.875 C97.9763495,8.875 98.4919661,9.36607143 98.4919661,9.96428571 L98.4919661,9.99107143 C98.4919661,10.5892857 97.985557,11.0803571 97.3686586,11.0803571 L92.774147,11.0803571 C92.774147,11.0803571 91.9178552,12.625 90.1408196,12.625 C89.6712403,12.625 90.7116808,11.7946429 90.4999097,11.0803571 L85.8685683,11.0803571 C85.2608774,11.0803571 84.7452609,10.5892857 84.7452609,9.99107143 L84.7452609,9.96428571 C84.7452609,9.375 85.2608774,8.875 85.8685683,8.875 L90.4999097,8.875 L90.4999097,7.22321429 L86.1816212,7.22321429 C85.5647229,7.22321429 85.0583138,6.73214286 85.0583138,6.13392857 L85.0583138,6.08035714 C85.0583138,5.45535714 85.5647229,4.99107143 86.1816212,4.99107143 L90.4999097,4.99107143 L90.4999097,3.38392857 L85.8685683,3.38392857 C85.2608774,3.38392857 84.7452609,2.89285714 84.7452609,2.29464286 L84.7452609,2.22321429 C84.7452609,1.66964286 85.2608774,1.13392857 85.8685683,1.13392857 L90.527532,1.13392857 C90.6656436,0.705357143 91.0707709,0.339285714 91.6140097,0.339285714 L91.6508395,0.339285714 C92.1572486,0.339285714 92.5992056,0.705357143 92.7373172,1.13392857 L97.3686586,1.13392857 L97.3686586,1.14285714 Z" id="路径"></path>
                    <path d="M97.313414,13.6696429 C96.7333454,13.1071429 96.0243726,12.8392857 95.2141181,12.8392857 L71.0722152,12.8392857 C70.4645243,12.8392857 69.9489077,13.3035714 69.9489077,13.9285714 L69.9489077,13.9910714 C69.9489077,14.5803571 70.4645243,15.0803571 71.0722152,15.0803571 L95.2141181,15.0803571 C95.6192454,15.0803571 95.8954685,15.3839286 95.8954685,15.7767857 L95.8954685,18.9732143 C95.8954685,19.375 95.6192454,19.6696429 95.2141181,19.6696429 L71.0722152,19.6696429 C70.4645243,19.6696429 69.9489077,20.125 69.9489077,20.7589286 L69.9489077,20.8214286 C69.9489077,21.375 70.4645243,21.875 71.0722152,21.875 L95.2141181,21.875 C96.0243726,21.875 96.7425528,21.5714286 97.313414,21.0178571 C97.9211049,20.4910714 98.2341578,19.7589286 98.2341578,18.9732143 L98.2341578,15.7767857 C98.2341578,14.9553571 97.9303123,14.2857143 97.313414,13.6696429 Z" id="路径"></path>
                    <path d="M94.6800867,16.2678571 L72.4257086,16.2678571 C71.8180177,16.2678571 71.3392309,16.7946429 71.3392309,17.3571429 L71.3392309,17.4196429 C71.3392309,18.0089286 71.8180177,18.5089286 72.4257086,18.5089286 L94.6800867,18.5089286 L94.6800867,16.2678571 L94.6800867,16.2678571 Z" id="路径"></path>
                    <path d="M79.6719624,30.1785714 C78.4473732,30.1785714 77.499007,29.8125 76.9557682,29.1339286 C76.3756996,28.4375 76.0718541,27.6517857 76.0718541,26.625 L76.0718541,23.6517857 C76.0718541,23.0267857 76.5874707,22.5625 77.1951616,22.5625 L77.2596136,22.5625 C77.8673046,22.5625 78.3829211,23.0267857 78.3829211,23.6517857 L78.3829211,26.625 C78.3829211,27.0178571 78.4473732,27.3125 78.6867666,27.5803571 C78.8893302,27.8392857 79.2300054,27.9732143 79.6719624,27.9732143 L91.6232172,27.9732143 C92.2032858,27.9732143 92.7465246,28.4375 92.7465246,29.0535714 L92.7465246,29.0892857 C92.7465246,29.6785714 92.2032858,30.1696429 91.6232172,30.1696429 L79.6719624,30.1696429 L79.6719624,30.1785714 Z" id="路径"></path>
                    <path d="M86.8537642,26.0267857 C86.8537642,26.5803571 86.3381477,27.1160714 85.7304568,27.1160714 L85.693627,27.1160714 C85.0491063,27.1160714 84.5703196,26.5892857 84.5703196,26.0267857 L84.5703196,23.6517857 C84.5703196,23.0267857 85.0491063,22.5625 85.693627,22.5625 L85.7304568,22.5625 C86.3381477,22.5625 86.8537642,23.0267857 86.8537642,23.6517857 L86.8537642,26.0267857 Z" id="路径"></path>
                    <path d="M7.83552988,15.6428571 C8.01967864,15.1607143 8.636577,14.875 9.16140097,15.0625 L9.18902329,15.0714286 C9.74146958,15.2767857 9.97165553,15.875 9.78750677,16.3571429 L8.43401336,19.875 C8.22224228,20.4107143 7.66058855,20.6607143 7.10814226,20.4642857 L7.08051995,20.4553571 C6.55569597,20.2678571 6.27026539,19.7142857 6.47282903,19.1696429 L7.83552988,15.6428571 Z" id="路径"></path>
                    <path d="M98.2709875,28.0357143 C98.5103809,28.5625 98.3078173,29.1964286 97.7277487,29.4553571 L97.6909189,29.4553571 C97.1384726,29.75 96.4663297,29.4821429 96.1901065,28.9553571 L93.6764759,23.8214286 C93.4094602,23.2946429 93.6396461,22.6339286 94.182885,22.3660714 C94.4591081,22.2678571 94.7629536,22.2410714 95.0667991,22.3035714 C95.3706445,22.4017857 95.5824156,22.6071429 95.7113197,22.8571429 L98.2709875,28.0357143 Z" id="路径"></path>
                </g>
                <g transform="translate(0.920744, 34.821429)">
                    <path d="M5.34031414,1.07142857 C4.06048023,1.07142857 3.13052898,1.33035714 2.55046037,1.83928571 C1.97039177,2.34821429 1.68496118,3.16071429 1.68496118,4.27678571 C1.68496118,5.72321429 2.24661491,6.91964286 3.36071493,7.86607143 C4.47481495,8.8125 5.92038274,9.28571429 7.67900343,9.28571429 C8.03809352,9.28571429 8.26827947,9.32142857 8.36956129,9.39285714 C8.47084311,9.46428571 8.52608774,9.58035714 8.52608774,9.75 C8.52608774,9.91071429 8.47084311,10.0267857 8.35114642,10.1071429 C8.24065716,10.1785714 8.0565084,10.2142857 7.817115,10.2142857 C5.69019679,10.2142857 3.94999097,9.65178571 2.605705,8.53571429 C1.26141903,7.41964286 0.589276043,6 0.589276043,4.28571429 C0.589276043,3.58928571 0.727387615,2.94642857 1.00361076,2.33928571 C1.27983391,1.74107143 1.64813143,1.25892857 2.13612565,0.901785714 C2.49521574,0.625 2.93717277,0.428571429 3.46199675,0.3125 C3.97761329,0.196428571 4.79707528,0.133928571 5.90196786,0.133928571 L7.71583318,0.133928571 C7.90918938,0.133928571 8.0565084,0.178571429 8.15779021,0.258928571 C8.25907203,0.348214286 8.31431666,0.455357143 8.31431666,0.607142857 C8.31431666,0.75 8.25907203,0.866071429 8.15779021,0.9375 C8.04730096,1.01785714 7.90918938,1.05357143 7.71583318,1.05357143 L5.34031414,1.05357143 L5.34031414,1.07142857 Z" id="路径"></path>
                    <path d="M15.044954,9.57142857 C15.044954,9.75892857 14.9989168,9.90178571 14.9160498,9.99107143 C14.8331829,10.0892857 14.7134862,10.1339286 14.5661672,10.1339286 C14.4096407,10.1339286 14.2991515,10.0892857 14.2162845,9.99107143 C14.1334176,9.89285714 14.0965878,9.75 14.0965878,9.5625 L14.0965878,0.714285714 C14.0965878,0.526785714 14.1334176,0.383928571 14.2162845,0.285714286 C14.2991515,0.1875 14.4096407,0.142857143 14.5661672,0.142857143 C14.7226936,0.142857143 14.8331829,0.196428571 14.9160498,0.294642857 C14.9989168,0.392857143 15.044954,0.535714286 15.044954,0.714285714 L15.044954,9.57142857 Z" id="路径"></path>
                    <path d="M20.8732623,6.42857143 C20.8732623,5.3125 21.2047301,4.39285714 21.8676656,3.66964286 C22.5306012,2.95535714 23.3776855,2.59821429 24.4089186,2.59821429 C25.4401517,2.59821429 26.2780285,2.95535714 26.9409641,3.66964286 C27.6038996,4.38392857 27.92616,5.30357143 27.92616,6.42857143 C27.92616,7.53571429 27.5946922,8.44642857 26.9409641,9.16071429 C26.287236,9.86607143 25.4401517,10.2232143 24.4089186,10.2232143 C23.3776855,10.2232143 22.5306012,9.86607143 21.8676656,9.16071429 C21.2047301,8.4375 20.8732623,7.52678571 20.8732623,6.42857143 Z M24.4089186,3.41964286 C23.6539086,3.41964286 23.0370103,3.69642857 22.5582235,4.25 C22.0794367,4.80357143 21.8400433,5.51785714 21.8400433,6.41071429 C21.8400433,7.29464286 22.0794367,8.00892857 22.5674309,8.57142857 C23.0462177,9.125 23.6631161,9.40178571 24.3997111,9.40178571 C25.1455136,9.40178571 25.762412,9.125 26.2504062,8.5625 C26.7384004,8 26.9777938,7.28571429 26.9777938,6.41071429 C26.9777938,5.53571429 26.7384004,4.8125 26.2504062,4.25892857 C25.762412,3.69642857 25.1455136,3.41964286 24.4089186,3.41964286 Z" id="形状"></path>
                    <path d="M38.8185593,9.02678571 C38.5147138,9.4375 38.1648312,9.74107143 37.7597039,9.9375 C37.3545766,10.1339286 36.8942047,10.2321429 36.3785882,10.2321429 C35.4946741,10.2321429 34.8133237,9.98214286 34.3529518,9.49107143 C33.8833724,9 33.6531865,8.28571429 33.6531865,7.33928571 L33.6531865,3.25892857 C33.6531865,3.07142857 33.6900162,2.91964286 33.7820906,2.82142857 C33.8649576,2.72321429 33.9846543,2.66964286 34.1411807,2.66964286 C34.2884997,2.66964286 34.4081964,2.72321429 34.4910634,2.82142857 C34.5739303,2.91964286 34.6107601,3.07142857 34.6107601,3.25892857 L34.6107601,6.91964286 C34.6107601,7.83035714 34.7580791,8.47321429 35.0619245,8.84821429 C35.36577,9.22321429 35.8537642,9.41071429 36.5443221,9.41071429 C37.3177469,9.41071429 37.8886081,9.15178571 38.266113,8.625 C38.643618,8.09821429 38.8277667,7.30357143 38.8277667,6.22321429 L38.8277667,3.25892857 C38.8277667,3.07142857 38.8738039,2.91964286 38.9566709,2.82142857 C39.0395378,2.72321429 39.1592345,2.66964286 39.315761,2.66964286 C39.4722874,2.66964286 39.5827767,2.72321429 39.6656436,2.82142857 C39.7393031,2.91964286 39.7853403,3.07142857 39.7853403,3.25892857 L39.7853403,9.55357143 C39.7853403,9.74107143 39.7485106,9.89285714 39.6656436,9.99107143 C39.5827767,10.0892857 39.4722874,10.1428571 39.315761,10.1428571 C39.1592345,10.1428571 39.0487453,10.0892857 38.9566709,9.99107143 C38.8738039,9.89285714 38.8277667,9.74107143 38.8277667,9.5625 L38.8277667,9.02678571 L38.8185593,9.02678571 Z" id="路径"></path>
                    <path d="M51.4235422,10.0982143 L50.1437083,10.0982143 C49.2874165,10.0982143 48.6336884,10.0535714 48.1733165,9.96428571 C47.722152,9.875 47.3354396,9.72321429 47.0408016,9.51785714 C46.5896371,9.21428571 46.2581693,8.83035714 46.0279834,8.36607143 C45.7977974,7.91071429 45.6873082,7.38392857 45.6873082,6.80357143 C45.6873082,5.51785714 46.1476801,4.5 47.0776313,3.75892857 C47.9983752,3.00892857 49.2690016,2.63392857 50.8710959,2.63392857 C51.0276223,2.63392857 51.1381116,2.63392857 51.2209785,2.63392857 C51.294638,2.63392857 51.377505,2.63392857 51.4511645,2.63392857 L51.4511645,0.714285714 C51.4511645,0.526785714 51.4879942,0.383928571 51.5708612,0.285714286 C51.6445207,0.1875 51.7642174,0.142857143 51.9207438,0.142857143 C52.0864777,0.142857143 52.2061744,0.1875 52.2890413,0.285714286 C52.3719083,0.383928571 52.408738,0.526785714 52.408738,0.714285714 L52.408738,9.49107143 C52.408738,9.73214286 52.344286,9.88392857 52.2061744,9.97321429 C52.049648,10.0625 51.8010471,10.0982143 51.4235422,10.0982143 Z M51.441957,3.5 C51.4051273,3.5 51.3406752,3.5 51.2578083,3.49107143 C50.9907926,3.47321429 50.8158512,3.47321429 50.7237769,3.47321429 C49.508395,3.47321429 48.5324066,3.77678571 47.8142264,4.375 C47.0960462,4.97321429 46.7369561,5.77678571 46.7369561,6.76785714 C46.7369561,7.5625 46.9671421,8.16964286 47.4183066,8.58928571 C47.869471,9.00892857 48.5324066,9.21428571 49.3886983,9.21428571 L51.4511645,9.21428571 L51.4511645,3.5 L51.441957,3.5 Z" id="形状"></path>
                    <path d="M60.5481134,9.19642857 C60.9348258,8.44642857 61.275501,7.60714286 61.5609316,6.6875 C61.8463622,5.76785714 62.0857556,4.75892857 62.2791118,3.66964286 C62.2791118,3.63392857 62.2883192,3.58928571 62.2975266,3.52678571 C62.389601,2.98214286 62.5553349,2.70535714 62.7947283,2.70535714 C63.0249142,2.70535714 63.1814407,2.95535714 63.2643076,3.46428571 C63.2827225,3.54464286 63.29193,3.61607143 63.3011374,3.66071429 C63.4852862,4.72321429 63.7154721,5.72321429 64.0009027,6.65178571 C64.2863333,7.58035714 64.6270085,8.42857143 65.0229283,9.19642857 C65.4096407,8.54464286 65.7042788,7.79464286 65.897635,6.94642857 C66.0909912,6.09821429 66.192273,5.16964286 66.192273,4.16964286 C66.192273,4.07142857 66.192273,3.94642857 66.1830655,3.78571429 C66.1738581,3.625 66.1738581,3.51785714 66.1738581,3.46428571 C66.1738581,3.15178571 66.2106878,2.94642857 66.2843474,2.84821429 C66.3580069,2.74107143 66.486911,2.69642857 66.6618523,2.69642857 C66.8460011,2.69642857 66.9749052,2.77678571 67.0485647,2.9375 C67.1222242,3.09821429 67.1498465,3.44642857 67.1498465,3.96428571 C67.1498465,4.83928571 67.0577722,5.71428571 66.8736234,6.60714286 C66.6894746,7.5 66.4316664,8.30357143 66.0909912,9.02678571 C65.8700126,9.50892857 65.6858639,9.82142857 65.5477523,9.95535714 C65.4096407,10.0892857 65.2439068,10.1607143 65.0505506,10.1607143 C64.6730457,10.1607143 64.3047481,9.75892857 63.9456581,8.95535714 C63.586568,8.15178571 63.1906481,6.85714286 62.7578985,5.08035714 C62.3527713,6.83035714 61.9660589,8.11607143 61.5977613,8.92857143 C61.2294638,9.75 60.8611663,10.1607143 60.4836613,10.1607143 C60.2995125,10.1607143 60.1429861,10.1071429 60.014082,9.99107143 C59.8851778,9.875 59.7286514,9.64285714 59.5629175,9.29464286 C59.19462,8.5625 58.8999819,7.72321429 58.6882109,6.77678571 C58.4764398,5.83928571 58.375158,4.90178571 58.375158,3.96428571 C58.375158,3.46428571 58.4119877,3.125 58.4856472,2.95535714 C58.5593067,2.77678571 58.6882109,2.69642857 58.8815671,2.69642857 C59.047301,2.69642857 59.1669977,2.74107143 59.2406572,2.83035714 C59.3143167,2.91964286 59.3511464,3.0625 59.3511464,3.25 L59.3511464,4.16964286 C59.3511464,5.16071429 59.4524282,6.08035714 59.6457844,6.9375 C59.866763,7.79464286 60.161401,8.54464286 60.5481134,9.19642857 Z" id="路径"></path>
                    <path d="M74.2635855,1.58928571 C74.2635855,1.82142857 74.2243698,1.98214286 74.1459384,2.08928571 C74.0675071,2.19642857 73.9400561,2.25 73.7635855,2.25 C73.5969188,2.25 73.4694678,2.19642857 73.3910365,2.08928571 C73.3028012,1.98214286 73.2635855,1.8125 73.2635855,1.59821429 C73.2635855,1.36607143 73.3028012,1.20535714 73.3812325,1.10714286 C73.4596639,1.00892857 73.5871149,0.955357143 73.7635855,0.955357143 C73.9302522,0.955357143 74.0577031,1.00892857 74.1361345,1.11607143 C74.2243698,1.21428571 74.2635855,1.375 74.2635855,1.58928571 Z M73.2635855,3.30357143 C73.2635855,3.11607143 73.3028012,2.97321429 73.3910365,2.875 C73.4792718,2.77678571 73.5969188,2.73214286 73.7635855,2.73214286 C73.9302522,2.73214286 74.0478992,2.78571429 74.1361345,2.875 C74.2145659,2.97321429 74.2635855,3.11607143 74.2635855,3.30357143 L74.2635855,9.57142857 C74.2635855,9.75892857 74.2243698,9.90178571 74.1361345,10 C74.0478992,10.0982143 73.9302522,10.1428571 73.7635855,10.1428571 C73.5969188,10.1428571 73.4792718,10.0982143 73.3910365,10 C73.3028012,9.90178571 73.2635855,9.75892857 73.2635855,9.57142857 L73.2635855,3.30357143 Z" id="形状"></path>
                    <path d="M80.3164831,10.0982143 C80.1231269,10.0982143 79.9758079,10.0625 79.8745261,9.98214286 C79.7732443,9.90178571 79.7272071,9.79464286 79.7272071,9.66071429 C79.7272071,9.51785714 79.7732443,9.41964286 79.8745261,9.34821429 C79.9758079,9.27678571 80.1231269,9.25 80.3256906,9.25 L82.9682253,9.25 C83.8061022,9.25 84.3953782,9.11607143 84.7452609,8.86607143 C85.0951435,8.60714286 85.2608774,8.1875 85.2608774,7.59821429 C85.2608774,7.20535714 85.1503882,6.89285714 84.9294096,6.66071429 C84.7084311,6.42857143 84.3769634,6.26785714 83.9165914,6.1875 L81.596317,5.74107143 C80.9333815,5.61607143 80.4914244,5.4375 80.2520311,5.23214286 C80.0126377,5.01785714 79.9021484,4.72321429 79.9021484,4.33035714 C79.9021484,3.8125 80.1139195,3.41964286 80.5466691,3.14285714 C80.9794187,2.86607143 81.5871096,2.73214286 82.3789493,2.73214286 L84.9478245,2.73214286 C85.1411807,2.73214286 85.2977072,2.76785714 85.398989,2.84821429 C85.5002708,2.92857143 85.5555154,3.03571429 85.5555154,3.16964286 C85.5555154,3.30357143 85.5002708,3.41071429 85.398989,3.48214286 C85.2977072,3.55357143 85.1411807,3.58928571 84.9386171,3.58928571 L82.0382741,3.58928571 C81.6331468,3.58928571 81.3477162,3.63392857 81.1911897,3.73214286 C81.0346633,3.82142857 80.9517964,3.98214286 80.9517964,4.21428571 C80.9517964,4.39285714 80.9978335,4.53571429 81.0991154,4.63392857 C81.2003972,4.73214286 81.3569236,4.80357143 81.5871096,4.85714286 L83.9994584,5.32142857 C84.7452609,5.47321429 85.3069146,5.73214286 85.6752121,6.09821429 C86.0435097,6.47321429 86.2276584,6.96428571 86.2276584,7.5625 C86.2276584,8.41964286 85.9422278,9.05357143 85.3621592,9.47321429 C84.7912981,9.89285714 83.907384,10.1071429 82.7380394,10.1071429 L80.3164831,10.1071429 L80.3164831,10.0982143 Z" id="路径"></path>
                    <path d="M97.608052,9.26785714 C97.8014082,9.26785714 97.9579346,9.30357143 98.0592165,9.375 C98.1604983,9.44642857 98.2157429,9.55357143 98.2157429,9.6875 C98.2157429,9.82142857 98.1604983,9.92857143 98.0684239,10 C97.9671421,10.0714286 97.8106156,10.1071429 97.6172594,10.1071429 L96.116447,10.1071429 C95.3430222,10.1071429 94.7261238,10.0535714 94.2473371,9.95535714 C93.7777577,9.85714286 93.363423,9.6875 93.0043329,9.46428571 C92.5255461,9.16071429 92.1388337,8.73214286 91.8626106,8.17857143 C91.5863874,7.625 91.4482759,7.00892857 91.4482759,6.34821429 C91.4482759,5.26785714 91.7889511,4.375 92.4610941,3.66964286 C93.133237,2.96428571 93.9987362,2.60714286 95.0391767,2.60714286 C95.9783354,2.60714286 96.7609677,2.90178571 97.4146958,3.5 C98.0592165,4.09821429 98.3814768,4.8125 98.3814768,5.64285714 L98.3814768,5.91964286 C98.3814768,6.04464286 98.344647,6.13392857 98.2617801,6.20535714 C98.1881206,6.27678571 98.0684239,6.30357143 97.9211049,6.30357143 L92.4887164,6.30357143 L92.4887164,6.34821429 C92.4887164,7.40178571 92.7557321,8.15178571 93.2989709,8.59821429 C93.8330023,9.04464286 94.7537462,9.27678571 96.0427875,9.27678571 L97.608052,9.27678571 L97.608052,9.26785714 Z M92.5623759,5.5 L97.3686586,5.5 C97.3410363,4.84821429 97.1108503,4.32142857 96.6781007,3.9375 C96.2453511,3.55357143 95.67449,3.35714286 94.9655172,3.35714286 C94.2749594,3.35714286 93.7040982,3.55357143 93.2713486,3.9375 C92.838599,4.32142857 92.6084131,4.84821429 92.5623759,5.5 Z" id="形状"></path>
                </g>
            </g>
        </g>
    </g>
</svg>